<?xml version="1.0" encoding="utf-8"?>
<!-- Generator: Adobe Illustrator 26.3.1, SVG Export Plug-In . SVG Version: 6.00 Build 0)  -->
<svg version="1.1" xmlns="http://www.w3.org/2000/svg" xmlns:xlink="http://www.w3.org/1999/xlink" x="0px" y="0px"
	 viewBox="0 0 700 700" style="enable-background:new 0 0 700 700;" xml:space="preserve">
<style type="text/css">
	.st0{fill:none;stroke:#FEFEFE;stroke-miterlimit:10;}
	.st1{fill:#E0D517;}
</style>
<g id="Layer_2">
</g>
<g id="Layer_1">
	<g>
		<path class="st0" d="M346.2,673c16.1,0.1,36.2-1.1,56.2-4c40.2-5.7,78.6-17.5,114.5-36.7c32.4-17.2,61.2-39,86.2-65.9
			c15.4-16.6,29-34.5,40.9-53.9c17.4-28.4,30.7-58.5,38.4-90.9c8.7-36.7,10.4-73.9,5.8-111.3c-2.4-19.3-6.7-38.3-12.8-56.7
			c-8.8-26.9-21.5-52-37.1-75.6c-13.5-20.4-28.5-39.6-46.1-56.6c-14.2-13.7-29.4-26.2-45.9-37.1c-16.2-10.7-33-20.4-50.8-28.3
			c-20-8.9-40.8-15.4-62.2-20.1c-19.3-4.3-38.8-6.8-58.4-8.4c-13.7-1.1-27.5-0.6-41.2,0.1c-18.9,1-37.6,3.2-56.2,6.6
			c-24.9,4.7-48.9,12.5-72.1,22.7c-23.3,10.3-45,23.3-65.4,38.6c-22.5,16.9-42.1,36.7-59.6,58.6c-14.1,17.7-26.2,36.7-36.4,56.9
			c-11.7,23.1-20.7,47.1-26.3,72.4c-6,27.1-8.3,54.7-6.7,82.5c1.3,22.9,4.5,45.4,10.8,67.5c11.3,39.6,28.8,75.9,53.8,108.6
			c18.9,24.7,40.5,46.5,65.5,64.9c17.4,12.8,36,23.6,55.5,32.7c22.1,10.3,44.9,18,68.6,23.6C290.5,669.2,316,673,346.2,673z"/>
		<path class="st1" d="M346.2,673c-30.2,0-55.8-3.8-81-9.7c-23.7-5.5-46.5-13.3-68.6-23.6c-19.6-9.1-38.2-19.9-55.5-32.7
			c-25-18.4-46.6-40.2-65.5-64.9C50.4,509.4,32.9,473,21.7,433.5c-6.3-22.1-9.5-44.6-10.8-67.5c-1.5-27.9,0.7-55.4,6.7-82.5
			c5.6-25.2,14.6-49.2,26.3-72.4c10.2-20.2,22.3-39.2,36.4-56.9c17.5-21.9,37.2-41.6,59.6-58.6c20.4-15.3,42.1-28.3,65.4-38.6
			c23.1-10.3,47.2-18.1,72.1-22.7c18.6-3.5,37.3-5.7,56.2-6.6c13.8-0.7,27.5-1.1,41.2-0.1c19.6,1.5,39.1,4.1,58.4,8.4
			c21.4,4.7,42.2,11.3,62.2,20.1c17.8,7.9,34.6,17.6,50.8,28.3c16.5,10.9,31.7,23.4,45.9,37.1c17.6,17,32.6,36.2,46.1,56.6
			c15.7,23.6,28.3,48.7,37.1,75.6c6.1,18.5,10.4,37.4,12.8,56.7c4.6,37.4,2.9,74.6-5.8,111.3c-7.7,32.4-21,62.5-38.4,90.9
			c-11.9,19.3-25.5,37.3-40.9,53.9c-25,26.9-53.8,48.7-86.2,65.9c-36,19.2-74.3,30.9-114.5,36.7C382.4,671.9,362.3,673.1,346.2,673z
			 M276.2,141.8c-0.1,1-1,1.2-1.6,1.5c-12.8,6.4-24.6,14.5-35.7,23.5c-22.7,18.5-41.5,40.4-56.1,65.7
			c-17.6,30.5-27.1,63.4-28.3,98.6c-0.9,25.8,2.5,51,11.1,75.3c10.7,30.3,26.7,57.5,49.5,80.5c15.2,15.4,32.2,28.2,51.6,37.7
			c22.1,10.7,45.7,16.7,70.1,19.6c3.3,0.4,4.2-0.6,4.1-3.9c-0.2-12.1-0.1-24.3-0.1-36.4c0-27.1,0-54.2-0.2-81.3c0-3.5,1-4.4,4.3-4.2
			c4.5,0.3,8.9,0.1,13.4,0.2c6.4,0,5.4-0.2,5.4,5.3c0,67.1,0,134.2,0.1,201.3c0,6.1-0.8,5.5,5.2,5.3c6.4-0.2,12.7-0.8,19.1-1.2
			c25.1-1.6,49.4-6.7,73.1-15.1c32.6-11.5,62.1-28.3,88.6-50.4c31-25.9,56.7-56.4,76.6-91.7c13.9-24.6,24.2-50.6,31.3-77.8
			c4.6-17.8,7.7-35.9,9.4-54.2c1.7-18.7,1.9-37.5-0.4-56.1c-3.9-31.1-14.7-59.8-30.5-86.7c-14.8-25.1-32.4-47.9-53.4-68.1
			c-21.2-20.4-44.9-37.3-70.6-51.4c-22.6-12.4-46.5-21.3-71.4-27.8c-24.2-6.4-48.8-9.5-73.7-11.2c-2.5-0.2-3.3,0.5-3.3,3
			c0.1,27.2,0.1,54.5,0.1,81.7c0,2.2,0.7,3.1,3,3.4c10.7,1.4,21.5,2.7,32.1,5.1c36.6,8.3,68.5,25.7,95.9,50.9
			c25.3,23.3,44.1,51.3,56.8,83.4c14.7,37,18.3,75.3,13.7,114.4c-2.7,22.7-9.4,44.6-19,65.5c-9.7,21.1-22.5,40.2-37.9,57.6
			c-22,24.8-47.6,44.5-78.7,56.8c-1.4,0.5-2.7,1.7-4.9,0.6c1-0.7,1.6-1.2,2.2-1.5c12.7-6.3,24.5-14.2,35.4-23.2
			c22.6-18.6,40.8-41,55-66.6c15.6-28.2,25.9-58.2,28.4-90.5c2.1-27,0-53.6-8.4-79.4c-11.1-34.3-28.9-64.6-55.8-89.1
			C463,193.6,442,180.3,418.5,171c-16.4-6.5-33.5-10.5-51.1-12.5c-2.9-0.3-3.7,0.2-3.7,3.3c0.1,18.3,0,36.5,0,54.8
			c0,18.3-0.1,36.6,0,54.8c0,2.7-0.7,3.6-3.4,3.5c-4.8-0.2-9.7,0-14.6,0c-5,0-5,0-5-4.9c0-66-0.1-131.9,0-197.9
			c0-2.7-0.7-3.7-3.4-3.5c-4.2,0.3-8.4,0.4-12.6,0.6c-28.1,1.2-55.3,7.3-81.9,16.3c-17.8,6-34.8,13.9-51.2,23.1
			c-24,13.4-45.5,30.1-64.8,49.6c-17.2,17.5-32.1,36.8-44.9,57.8c-19,31.4-32.9,64.8-40.9,100.5c-6.3,28.4-9.2,57.1-7.2,86.3
			c1.9,27.4,8.9,53.5,20,78.6C64.2,504.7,77.9,526.1,94,546c15.4,19,33.1,35.6,52.7,50.3c18,13.5,37.5,24.6,57.9,34.1
			c16.5,7.7,33.6,13.5,51,18.4c26.5,7.5,53.6,11.6,81.1,12.6c3.3,0.1,4-1.1,4-4.1c-0.1-15.5,0-30.9,0.1-46.4c0-10.1,0-20.2,0-30.3
			c0-1.7,0.3-3.4-2.6-3.6c-14.1-0.7-27.8-3-41.5-6.6c-29.8-7.8-56.1-22.1-79.7-41.6c-20.4-16.9-37.1-37.1-50.7-59.8
			c-20.4-34.2-31.3-71.2-32.5-111.1c-0.8-26.4,2-52.4,10.7-77.4c12.4-35.2,31.4-66.4,58.6-92.4c20-19.1,41.9-35.3,68.1-45
			C272.8,142.5,274.2,141,276.2,141.8z"/>
	</g>
</g>
</svg>
